<svg width="250" height="169" viewBox="0 0 250 169" fill="none" xmlns="http://www.w3.org/2000/svg">
<rect width="250" height="169" fill="white"/>
<path fill-rule="evenodd" clip-rule="evenodd" d="M93.8885 51.3664C76.037 26.7736 98.4762 19.9768 131.255 36.3663C100.255 47.3663 82.2551 75.3664 107.255 69.8664L108.255 76.8664C87.755 80.3664 79.7551 66.3664 93.8885 51.3664ZM98.7551 46.8664C87.3516 32.9235 100.255 31.8664 113.255 36.8664C106.895 39.3797 103.44 42.0531 98.7551 46.8664Z" fill="#8BC53C" stroke="#8BC53C"/>
<path fill-rule="evenodd" clip-rule="evenodd" d="M136.755 77.3663C123.839 104.874 106.231 88.9845 104.755 52.3663C132.225 73.1906 162.674 76.9482 145.786 57.7116L151.433 53.4559C164.397 69.7176 158.97 79.8829 136.755 77.3663ZM130.755 75.8663C124.052 92.5848 115.654 80.6646 113.755 66.8663C119.027 71.2225 124.278 74.0879 130.755 75.8663Z" fill="#8BC53C" stroke="#8BC53C"/>
<path fill-rule="evenodd" clip-rule="evenodd" d="M138.171 27.463C168.171 22.6158 164.255 50.3663 132.255 68.3662C137.255 30.3662 122.117 5.57137 115.755 30.3662L108.255 28.3662C114.373 8.48981 131.154 8.0848 138.171 27.463ZM139.755 34.8662C157.342 30.9733 151.579 43.0165 141.255 52.3662C141.097 45.5307 141.398 41.2006 139.755 34.8662Z" fill="#8BC53C" stroke="#8BC53C"/>
<path d="M131.768 36C121.114 38.7379 113.768 43.075 103.768 52.5C114.165 62.0788 121.713 64.8197 132.768 68C135.409 55.6799 135.161 47.8945 131.768 36Z" fill="#8BC53C" stroke="#8BC53C"/>
<mask id="mask0_2_55" style="mask-type:alpha" maskUnits="userSpaceOnUse" x="110" y="38" width="25" height="26">
<path d="M127.529 39.1866C119.155 40.5926 108.039 49.6979 111.376 58.0683C112.331 60.4644 114.732 61.9312 117.24 62.5354C123.461 64.0342 127.156 61.9558 131.367 55.5847C132.642 53.6559 133.376 51.4115 133.576 49.1082C133.813 46.3917 133.83 44.4733 133.633 43.0423C133.248 40.2423 130.316 38.7186 127.529 39.1866Z" fill="#0D6A35" stroke="#0D6A35"/>
</mask>
<g mask="url(#mask0_2_55)">
<path d="M127.529 39.1866C119.155 40.5926 108.039 49.6979 111.376 58.0683C112.331 60.4644 114.732 61.9312 117.24 62.5354C123.461 64.0342 127.156 61.9558 131.367 55.5847C132.642 53.6559 133.376 51.4115 133.576 49.1082C133.813 46.3917 133.83 44.4733 133.633 43.0423C133.248 40.2423 130.316 38.7186 127.529 39.1866Z" fill="#0D6A35" stroke="#0D6A35"/>
<path d="M117.336 56.9445C117.637 55.7022 118.316 54.4137 119.379 52.8734M117.336 56.9445C117.341 56.923 117.346 56.9014 117.352 56.8799M117.336 56.9445C117.372 56.7923 117.417 56.641 117.468 56.4901M117.336 56.9445C117.427 56.5663 117.569 56.1984 117.758 55.8322M117.336 56.9445C117.372 56.7946 117.416 56.6432 117.468 56.4901M117.336 56.9445C117.692 55.4751 118.954 54.015 120.828 52.1647M117.336 56.9445C117.423 56.5835 117.565 56.2141 117.758 55.8322M119.379 52.8734C121.451 49.8688 124.979 45.9063 130.001 39.4601M119.379 52.8734C118.335 54.43 117.642 55.7408 117.352 56.8799M119.379 52.8734C122.425 48.2418 127.448 41.9955 130.939 38.0798M117.352 56.8799C118.28 53.2363 122.918 49.6139 130.47 39.9202M117.468 56.4901C118.655 53.0061 123.658 49.7264 130.939 40.3803M117.468 56.4901C118.686 52.8997 124.122 48.3521 131.408 39M117.758 55.8322C118.35 54.6848 119.403 53.5528 120.828 52.1647M117.758 55.8322C119.521 52.3363 125.498 47.7906 132.347 39M120.828 52.1647C121.815 51.203 122.98 50.1183 124.294 48.8202M120.828 52.1647C121.825 51.1804 122.995 50.0856 124.294 48.8202M124.294 48.8202C126.343 46.7944 130.16 42.8686 132.816 39.4601M124.294 48.8202C127.673 46.1248 130.417 43.2865 132.347 39.9202" stroke="#8BC53C"/>
<path d="M116.186 51.2574L115.554 58.3095L121.768 53.1099" stroke="#0D6A35"/>
<path d="M126.349 39.1594C126.899 38.6095 127.717 38.2878 128.398 37.9208C128.657 37.7814 128.837 37.5408 129.121 37.4053C129.553 37.1996 129.898 37 130.389 37C130.869 37 131.084 37.3473 131.479 37.5447C132.035 37.8228 132.497 38.199 133.002 38.5887C133.476 38.9543 133.411 39.5587 133.411 40.1191C133.411 40.4722 133.361 40.7934 133.249 41.1307C133.215 41.2314 133.181 41.2611 133.093 41.176C132.852 40.9414 132.785 40.6913 132.772 40.359C132.761 40.0501 132.827 39.7441 132.827 39.4512C132.827 39.2477 132.414 38.8699 132.309 38.7314C132.104 38.4616 132.026 38.2434 131.718 38.1089C131.552 38.0362 131.376 37.9536 131.193 37.937C130.977 37.9174 130.802 37.7792 130.597 37.7587C130.061 37.7051 129.726 38.3697 129.384 38.6925C129.237 38.8309 128.999 38.9026 128.813 38.9713C128.703 39.0123 128.67 39.1361 128.567 39.1918C128.404 39.2801 128.222 39.3124 128.068 39.4252C127.69 39.7021 127.257 39.8721 126.887 40.1515C126.586 40.3794 126.163 40.4887 125.918 40.7902C125.856 40.866 125.834 40.9422 125.792 41.0269C125.66 41.2898 126.124 40.675 126.132 40.667C126.729 40.0697 127.36 39.6201 128.132 39.289C128.796 39.0048 129.531 38.535 130.285 38.5757C130.527 38.5888 130.887 38.7933 131.089 38.9259C131.353 39.0985 131.584 39.2827 131.832 39.4771C132.023 39.6272 132.196 39.7932 132.36 39.9764C132.597 40.2405 132.353 41.7499 132.268 42C132.203 42.1922 132.426 42.3608 132.268 42.5C132.183 42.5752 132.746 41.109 132.768 41C132.849 40.6067 132.185 40.2137 132.185 39.8143C132.185 39.0332 131.662 38.5644 131.076 38.1089" stroke="#0D6A35" stroke-linecap="round"/>
</g>
<path d="M41.203 110.169V115.238H30.621V120.714H38.539V125.635H30.621V136.143H24.294V110.169H41.203ZM60.6974 131.555H51.0034L49.4494 136.143H42.8264L52.2244 110.169H59.5504L68.9484 136.143H62.2514L60.6974 131.555ZM59.0694 126.671L55.8504 117.162L52.6684 126.671H59.0694ZM78.1356 110.169V136.143H71.8086V110.169H78.1356ZM101.406 110.169V115.238H94.5238V136.143H88.1968V115.238H81.3148V110.169H101.406ZM127.077 110.169V136.143H120.75V125.45H110.908V136.143H104.581V110.169H110.908V120.344H120.75V110.169H127.077ZM147.555 120.529V125.783H131.275V120.529H147.555ZM175.603 110.169V136.143H169.276V125.45H159.434V136.143H153.107V110.169H159.434V120.344H169.276V110.169H175.603ZM186.498 110.169V136.143H180.171V110.169H186.498ZM197.41 131.259H205.698V136.143H191.083V110.169H197.41V131.259ZM215.043 131.259H223.331V136.143H208.716V110.169H215.043V131.259Z" fill="#016635"/>
<path d="M24.563 142.421V150.143H22.682V142.421H24.563ZM32.8341 150.143H30.9531L27.8071 145.38V150.143H25.9261V142.421H27.8071L30.9531 147.206V142.421H32.8341V150.143ZM41.4466 142.421L38.7076 150.143H36.3536L33.6146 142.421H35.6166L37.5306 148.251L39.4556 142.421H41.4466ZM44.1138 143.928V145.49H46.6328V146.942H44.1138V148.636H46.9628V150.143H42.2328V142.421H46.9628V143.928H44.1138ZM50.978 150.22C50.4133 150.22 49.9073 150.128 49.46 149.945C49.0126 149.761 48.6533 149.49 48.382 149.131C48.118 148.771 47.9786 148.339 47.964 147.833H49.966C49.9953 148.119 50.0943 148.339 50.263 148.493C50.4316 148.639 50.6516 148.713 50.923 148.713C51.2016 148.713 51.4216 148.65 51.583 148.526C51.7443 148.394 51.825 148.214 51.825 147.987C51.825 147.796 51.759 147.638 51.627 147.514C51.5023 147.389 51.3446 147.286 51.154 147.206C50.9706 147.125 50.7066 147.033 50.362 146.931C49.8633 146.777 49.4563 146.623 49.141 146.469C48.8256 146.315 48.5543 146.087 48.327 145.787C48.0996 145.486 47.986 145.094 47.986 144.61C47.986 143.891 48.2463 143.33 48.767 142.927C49.2876 142.516 49.966 142.311 50.802 142.311C51.6526 142.311 52.3383 142.516 52.859 142.927C53.3796 143.33 53.6583 143.895 53.695 144.621H51.66C51.6453 144.371 51.5536 144.177 51.385 144.038C51.2163 143.891 51 143.818 50.736 143.818C50.5086 143.818 50.3253 143.88 50.186 144.005C50.0466 144.122 49.977 144.294 49.977 144.522C49.977 144.771 50.0943 144.965 50.329 145.105C50.5636 145.244 50.9303 145.394 51.429 145.556C51.9276 145.724 52.331 145.886 52.639 146.04C52.9543 146.194 53.2256 146.417 53.453 146.711C53.6803 147.004 53.794 147.382 53.794 147.844C53.794 148.284 53.6803 148.683 53.453 149.043C53.233 149.402 52.9103 149.688 52.485 149.901C52.0596 150.113 51.5573 150.22 50.978 150.22ZM60.5065 142.421V143.928H58.4605V150.143H56.5795V143.928H54.5335V142.421H60.5065ZM70.1956 142.421V150.143H68.3146V145.512L66.5876 150.143H65.0696L63.3316 145.501V150.143H61.4506V142.421H63.6726L65.8396 147.767L67.9846 142.421H70.1956ZM73.4292 143.928V145.49H75.9482V146.942H73.4292V148.636H76.2782V150.143H71.5482V142.421H76.2782V143.928H73.4292ZM84.4074 150.143H82.5264L79.3804 145.38V150.143H77.4994V142.421H79.3804L82.5264 147.206V142.421H84.4074V150.143ZM91.3259 142.421V143.928H89.2799V150.143H87.3989V143.928H85.3529V142.421H91.3259ZM100.508 150.143L99.7929 149.45C99.0816 149.992 98.2309 150.264 97.2409 150.264C96.6469 150.264 96.1299 150.168 95.6899 149.978C95.2499 149.78 94.9089 149.505 94.6669 149.153C94.4323 148.793 94.3149 148.375 94.3149 147.899C94.3149 147.415 94.4433 146.978 94.6999 146.59C94.9639 146.194 95.3563 145.871 95.8769 145.622C95.6863 145.387 95.5506 145.163 95.4699 144.951C95.3893 144.731 95.3489 144.492 95.3489 144.236C95.3489 143.869 95.4443 143.535 95.6349 143.235C95.8256 142.934 96.1006 142.699 96.4599 142.531C96.8266 142.355 97.2593 142.267 97.7579 142.267C98.2639 142.267 98.6929 142.358 99.0449 142.542C99.3969 142.725 99.6609 142.971 99.8369 143.279C100.013 143.587 100.094 143.924 100.079 144.291H98.3079C98.3153 144.093 98.2639 143.942 98.1539 143.84C98.0513 143.73 97.9119 143.675 97.7359 143.675C97.5599 143.675 97.4133 143.726 97.2959 143.829C97.1786 143.931 97.1199 144.063 97.1199 144.225C97.1199 144.379 97.1676 144.54 97.2629 144.709C97.3656 144.877 97.5233 145.072 97.7359 145.292L99.6169 147.129C99.6316 147.092 99.6499 147.048 99.6719 146.997C99.7013 146.945 99.7306 146.887 99.7599 146.821L100.167 146.128H102.048L101.52 147.085C101.322 147.517 101.095 147.928 100.838 148.317L102.697 150.143H100.508ZM97.3289 148.746C97.8203 148.746 98.2566 148.606 98.6379 148.328L96.9219 146.667C96.3939 146.938 96.1299 147.305 96.1299 147.767C96.1299 148.045 96.2363 148.28 96.4489 148.471C96.6689 148.654 96.9623 148.746 97.3289 148.746ZM107.589 148.691H110.053V150.143H105.708V142.421H107.589V148.691ZM114.603 150.22C113.877 150.22 113.209 150.051 112.601 149.714C111.999 149.376 111.519 148.907 111.16 148.306C110.808 147.697 110.632 147.015 110.632 146.26C110.632 145.504 110.808 144.826 111.16 144.225C111.519 143.623 111.999 143.154 112.601 142.817C113.209 142.479 113.877 142.311 114.603 142.311C115.329 142.311 115.992 142.479 116.594 142.817C117.202 143.154 117.679 143.623 118.024 144.225C118.376 144.826 118.552 145.504 118.552 146.26C118.552 147.015 118.376 147.697 118.024 148.306C117.672 148.907 117.195 149.376 116.594 149.714C115.992 150.051 115.329 150.22 114.603 150.22ZM114.603 148.504C115.219 148.504 115.71 148.298 116.077 147.888C116.451 147.477 116.638 146.934 116.638 146.26C116.638 145.578 116.451 145.035 116.077 144.632C115.71 144.221 115.219 144.016 114.603 144.016C113.979 144.016 113.481 144.217 113.107 144.621C112.74 145.024 112.557 145.57 112.557 146.26C112.557 146.942 112.74 147.488 113.107 147.899C113.481 148.302 113.979 148.504 114.603 148.504ZM124.724 144.863C124.585 144.606 124.383 144.412 124.119 144.28C123.862 144.14 123.558 144.071 123.206 144.071C122.597 144.071 122.11 144.272 121.743 144.676C121.376 145.072 121.193 145.603 121.193 146.271C121.193 146.982 121.384 147.539 121.765 147.943C122.154 148.339 122.685 148.537 123.36 148.537C123.822 148.537 124.211 148.419 124.526 148.185C124.849 147.95 125.083 147.613 125.23 147.173H122.843V145.787H126.935V147.536C126.796 148.005 126.557 148.441 126.22 148.845C125.89 149.248 125.468 149.574 124.955 149.824C124.442 150.073 123.862 150.198 123.217 150.198C122.454 150.198 121.772 150.033 121.171 149.703C120.577 149.365 120.111 148.9 119.774 148.306C119.444 147.712 119.279 147.033 119.279 146.271C119.279 145.508 119.444 144.83 119.774 144.236C120.111 143.634 120.577 143.169 121.171 142.839C121.765 142.501 122.443 142.333 123.206 142.333C124.13 142.333 124.907 142.556 125.538 143.004C126.176 143.451 126.598 144.071 126.803 144.863H124.724ZM129.858 142.421V150.143H127.977V142.421H129.858ZM134.015 150.22C133.45 150.22 132.944 150.128 132.497 149.945C132.05 149.761 131.69 149.49 131.419 149.131C131.155 148.771 131.016 148.339 131.001 147.833H133.003C133.032 148.119 133.131 148.339 133.3 148.493C133.469 148.639 133.689 148.713 133.96 148.713C134.239 148.713 134.459 148.65 134.62 148.526C134.781 148.394 134.862 148.214 134.862 147.987C134.862 147.796 134.796 147.638 134.664 147.514C134.539 147.389 134.382 147.286 134.191 147.206C134.008 147.125 133.744 147.033 133.399 146.931C132.9 146.777 132.493 146.623 132.178 146.469C131.863 146.315 131.591 146.087 131.364 145.787C131.137 145.486 131.023 145.094 131.023 144.61C131.023 143.891 131.283 143.33 131.804 142.927C132.325 142.516 133.003 142.311 133.839 142.311C134.69 142.311 135.375 142.516 135.896 142.927C136.417 143.33 136.695 143.895 136.732 144.621H134.697C134.682 144.371 134.591 144.177 134.422 144.038C134.253 143.891 134.037 143.818 133.773 143.818C133.546 143.818 133.362 143.88 133.223 144.005C133.084 144.122 133.014 144.294 133.014 144.522C133.014 144.771 133.131 144.965 133.366 145.105C133.601 145.244 133.967 145.394 134.466 145.556C134.965 145.724 135.368 145.886 135.676 146.04C135.991 146.194 136.263 146.417 136.49 146.711C136.717 147.004 136.831 147.382 136.831 147.844C136.831 148.284 136.717 148.683 136.49 149.043C136.27 149.402 135.947 149.688 135.522 149.901C135.097 150.113 134.594 150.22 134.015 150.22ZM143.544 142.421V143.928H141.498V150.143H139.617V143.928H137.571V142.421H143.544ZM146.369 142.421V150.143H144.488V142.421H146.369ZM147.413 146.271C147.413 145.508 147.578 144.83 147.908 144.236C148.238 143.634 148.696 143.169 149.283 142.839C149.877 142.501 150.548 142.333 151.296 142.333C152.212 142.333 152.997 142.575 153.65 143.059C154.302 143.543 154.739 144.203 154.959 145.039H152.891C152.737 144.716 152.517 144.47 152.231 144.302C151.952 144.133 151.633 144.049 151.274 144.049C150.694 144.049 150.225 144.25 149.866 144.654C149.506 145.057 149.327 145.596 149.327 146.271C149.327 146.945 149.506 147.484 149.866 147.888C150.225 148.291 150.694 148.493 151.274 148.493C151.633 148.493 151.952 148.408 152.231 148.24C152.517 148.071 152.737 147.825 152.891 147.503H154.959C154.739 148.339 154.302 148.999 153.65 149.483C152.997 149.959 152.212 150.198 151.296 150.198C150.548 150.198 149.877 150.033 149.283 149.703C148.696 149.365 148.238 148.9 147.908 148.306C147.578 147.712 147.413 147.033 147.413 146.271ZM158.905 150.22C158.34 150.22 157.834 150.128 157.387 149.945C156.939 149.761 156.58 149.49 156.309 149.131C156.045 148.771 155.905 148.339 155.891 147.833H157.893C157.922 148.119 158.021 148.339 158.19 148.493C158.358 148.639 158.578 148.713 158.85 148.713C159.128 148.713 159.348 148.65 159.51 148.526C159.671 148.394 159.752 148.214 159.752 147.987C159.752 147.796 159.686 147.638 159.554 147.514C159.429 147.389 159.271 147.286 159.081 147.206C158.897 147.125 158.633 147.033 158.289 146.931C157.79 146.777 157.383 146.623 157.068 146.469C156.752 146.315 156.481 146.087 156.254 145.787C156.026 145.486 155.913 145.094 155.913 144.61C155.913 143.891 156.173 143.33 156.694 142.927C157.214 142.516 157.893 142.311 158.729 142.311C159.579 142.311 160.265 142.516 160.786 142.927C161.306 143.33 161.585 143.895 161.622 144.621H159.587C159.572 144.371 159.48 144.177 159.312 144.038C159.143 143.891 158.927 143.818 158.663 143.818C158.435 143.818 158.252 143.88 158.113 144.005C157.973 144.122 157.904 144.294 157.904 144.522C157.904 144.771 158.021 144.965 158.256 145.105C158.49 145.244 158.857 145.394 159.356 145.556C159.854 145.724 160.258 145.886 160.566 146.04C160.881 146.194 161.152 146.417 161.38 146.711C161.607 147.004 161.721 147.382 161.721 147.844C161.721 148.284 161.607 148.683 161.38 149.043C161.16 149.402 160.837 149.688 160.412 149.901C159.986 150.113 159.484 150.22 158.905 150.22ZM164.89 146.271C164.89 145.508 165.055 144.83 165.385 144.236C165.715 143.634 166.174 143.169 166.76 142.839C167.354 142.501 168.025 142.333 168.773 142.333C169.69 142.333 170.475 142.575 171.127 143.059C171.78 143.543 172.216 144.203 172.436 145.039H170.368C170.214 144.716 169.994 144.47 169.708 144.302C169.43 144.133 169.111 144.049 168.751 144.049C168.172 144.049 167.703 144.25 167.343 144.654C166.984 145.057 166.804 145.596 166.804 146.271C166.804 146.945 166.984 147.484 167.343 147.888C167.703 148.291 168.172 148.493 168.751 148.493C169.111 148.493 169.43 148.408 169.708 148.24C169.994 148.071 170.214 147.825 170.368 147.503H172.436C172.216 148.339 171.78 148.999 171.127 149.483C170.475 149.959 169.69 150.198 168.773 150.198C168.025 150.198 167.354 150.033 166.76 149.703C166.174 149.365 165.715 148.9 165.385 148.306C165.055 147.712 164.89 147.033 164.89 146.271ZM177.24 150.22C176.514 150.22 175.847 150.051 175.238 149.714C174.637 149.376 174.157 148.907 173.797 148.306C173.445 147.697 173.269 147.015 173.269 146.26C173.269 145.504 173.445 144.826 173.797 144.225C174.157 143.623 174.637 143.154 175.238 142.817C175.847 142.479 176.514 142.311 177.24 142.311C177.966 142.311 178.63 142.479 179.231 142.817C179.84 143.154 180.317 143.623 180.661 144.225C181.013 144.826 181.189 145.504 181.189 146.26C181.189 147.015 181.013 147.697 180.661 148.306C180.309 148.907 179.833 149.376 179.231 149.714C178.63 150.051 177.966 150.22 177.24 150.22ZM177.24 148.504C177.856 148.504 178.348 148.298 178.714 147.888C179.088 147.477 179.275 146.934 179.275 146.26C179.275 145.578 179.088 145.035 178.714 144.632C178.348 144.221 177.856 144.016 177.24 144.016C176.617 144.016 176.118 144.217 175.744 144.621C175.378 145.024 175.194 145.57 175.194 146.26C175.194 146.942 175.378 147.488 175.744 147.899C176.118 148.302 176.617 148.504 177.24 148.504ZM190.981 142.421V150.143H189.1V145.512L187.373 150.143H185.855L184.117 145.501V150.143H182.236V142.421H184.458L186.625 147.767L188.77 142.421H190.981ZM198.218 144.907C198.218 145.354 198.116 145.765 197.91 146.139C197.705 146.505 197.39 146.802 196.964 147.03C196.539 147.257 196.011 147.371 195.38 147.371H194.214V150.143H192.333V142.421H195.38C195.996 142.421 196.517 142.527 196.942 142.74C197.368 142.952 197.687 143.246 197.899 143.62C198.112 143.994 198.218 144.423 198.218 144.907ZM195.237 145.875C195.597 145.875 195.864 145.79 196.04 145.622C196.216 145.453 196.304 145.215 196.304 144.907C196.304 144.599 196.216 144.36 196.04 144.192C195.864 144.023 195.597 143.939 195.237 143.939H194.214V145.875H195.237ZM204.005 148.779H201.123L200.661 150.143H198.692L201.486 142.421H203.664L206.458 150.143H204.467L204.005 148.779ZM203.521 147.327L202.564 144.5L201.618 147.327H203.521ZM214.216 150.143H212.335L209.189 145.38V150.143H207.308V142.421H209.189L212.335 147.206V142.421H214.216V150.143ZM222.201 142.421L219.528 147.591V150.143H217.647V147.591L214.974 142.421H217.108L218.604 145.655L220.089 142.421H222.201Z" fill="#8AC551"/>
</svg>
