<svg width="54" height="41" viewBox="0 0 54 41" fill="none" xmlns="http://www.w3.org/2000/svg">
<path d="M3.21625 9.096H8.99225V10.472H3.21625V9.096ZM3.37625 15H1.77625V3.8H9.68025V5.192H3.37625V15ZM11.0009 15L16.0729 3.8H17.6569L22.7449 15H21.0649L16.5369 4.696H17.1769L12.6489 15H11.0009ZM13.1609 12.2L13.5929 10.92H19.8969L20.3609 12.2H13.1609ZM25.6956 15V3.8H27.2956V15H25.6956ZM34.1528 15V5.192H30.3128V3.8H39.5768V5.192H35.7368V15H34.1528ZM50.6314 3.8H52.2314V15H50.6314V3.8ZM44.1994 15H42.5994V3.8H44.1994V15ZM50.7754 10.008H44.0394V8.616H50.7754V10.008ZM8.19244 24.6H9.39244V33H8.19244V24.6ZM3.36844 33H2.16844V24.6H3.36844V33ZM8.30044 29.256H3.24844V28.212H8.30044V29.256ZM20.0667 33V24.6H21.2667V33H20.0667ZM31.9416 33V24.6H33.1416V31.956H37.6896V33H31.9416ZM47.2266 33V24.6H48.4266V31.956H52.9746V33H47.2266Z" fill="white"/>
<line x1="1" y1="20.5" x2="53" y2="20.5" stroke="white"/>
</svg>
