<svg width="403" height="87" viewBox="0 0 403 87" fill="none" xmlns="http://www.w3.org/2000/svg">
<path fill-rule="evenodd" clip-rule="evenodd" d="M23.1875 42.3664C5.33596 17.7736 27.7751 10.9768 60.554 27.3663C29.554 38.3663 11.554 66.3664 36.554 60.8664L37.554 67.8664C17.0539 71.3664 9.054 57.3664 23.1875 42.3664ZM28.054 37.8664C16.6505 23.9235 29.554 22.8664 42.554 27.8664C36.1935 30.3797 32.7389 33.0531 28.054 37.8664Z" fill="#8BC53C" stroke="#8BC53C"/>
<path fill-rule="evenodd" clip-rule="evenodd" d="M66.054 68.3663C53.1381 95.8737 35.5295 79.9845 34.054 43.3663C61.524 64.1906 91.9733 67.9482 75.0853 48.7116L80.7324 44.4559C93.696 60.7176 88.2687 70.8829 66.054 68.3663ZM60.054 66.8663C53.3506 83.5848 44.9527 71.6646 43.054 57.8663C48.3261 62.2225 53.5768 65.0879 60.054 66.8663Z" fill="#8BC53C" stroke="#8BC53C"/>
<path fill-rule="evenodd" clip-rule="evenodd" d="M67.4699 18.463C97.4697 13.6158 93.554 41.3663 61.554 59.3662C66.554 21.3662 51.4156 -3.42863 45.054 21.3662L37.554 19.3662C43.672 -0.510186 60.4527 -0.915196 67.4699 18.463ZM69.054 25.8662C86.6406 21.9733 80.8779 34.0165 70.554 43.3662C70.3964 36.5307 70.6966 32.2006 69.054 25.8662Z" fill="#8BC53C" stroke="#8BC53C"/>
<path d="M61.067 27C50.4132 29.7379 43.0673 34.075 33.067 43.5C43.464 53.0788 51.012 55.8197 62.067 59C64.7078 46.6799 64.4601 38.8945 61.067 27Z" fill="#8BC53C" stroke="#8BC53C"/>
<mask id="mask0_7_2" style="mask-type:alpha" maskUnits="userSpaceOnUse" x="39" y="29" width="25" height="26">
<path d="M56.8276 30.1866C48.4544 31.5926 37.3374 40.6979 40.6745 49.0683C41.6297 51.4644 44.0314 52.9312 46.5391 53.5354C52.76 55.0342 56.4548 52.9558 60.6659 46.5847C61.9407 44.6559 62.6746 42.4115 62.8751 40.1082C63.1116 37.3917 63.1284 35.4733 62.9318 34.0423C62.5471 31.2423 59.6149 29.7186 56.8276 30.1866Z" fill="#0D6A35" stroke="#0D6A35"/>
</mask>
<g mask="url(#mask0_7_2)">
<path d="M56.8276 30.1866C48.4544 31.5926 37.3374 40.6979 40.6745 49.0683C41.6297 51.4644 44.0314 52.9312 46.5391 53.5354C52.76 55.0342 56.4548 52.9558 60.6659 46.5847C61.9407 44.6559 62.6746 42.4115 62.8751 40.1082C63.1116 37.3917 63.1284 35.4733 62.9318 34.0423C62.5471 31.2423 59.6149 29.7186 56.8276 30.1866Z" fill="#0D6A35" stroke="#0D6A35"/>
<path d="M46.6344 47.9445C46.936 46.7022 47.6154 45.4137 48.6776 43.8734M46.6344 47.9445C46.6397 47.923 46.645 47.9014 46.6505 47.8799M46.6344 47.9445C46.6714 47.7923 46.7156 47.641 46.767 47.4901M46.6344 47.9445C46.7263 47.5663 46.8681 47.1984 47.057 46.8322M46.6344 47.9445C46.6708 47.7946 46.7151 47.6432 46.767 47.4901M46.6344 47.9445C46.9912 46.4751 48.2533 45.015 50.127 43.1647M46.6344 47.9445C46.7221 47.5835 46.8644 47.2141 47.057 46.8322M48.6776 43.8734C50.7495 40.8688 54.2779 36.9063 59.3001 30.4601M48.6776 43.8734C47.6336 45.43 46.9408 46.7408 46.6505 47.8799M48.6776 43.8734C51.7238 39.2418 56.7472 32.9955 60.2383 29.0798M46.6505 47.8799C47.579 44.2363 52.217 40.6139 59.7692 30.9202M46.767 47.4901C47.9535 44.0061 52.9568 40.7264 60.2383 31.3803M46.767 47.4901C47.9847 43.8997 53.4213 39.3521 60.7074 30M47.057 46.8322C47.6487 45.6848 48.7023 44.5528 50.127 43.1647M47.057 46.8322C48.8198 43.3363 54.7969 38.7906 61.6456 30M50.127 43.1647C51.1141 42.203 52.2793 41.1183 53.5925 39.8202M50.127 43.1647C51.1238 42.1804 52.2937 41.0856 53.5925 39.8202M53.5925 39.8202C55.642 37.7944 59.4591 33.8686 62.1147 30.4601M53.5925 39.8202C56.9723 37.1248 59.7157 34.2865 61.6456 30.9202" stroke="#8BC53C"/>
<path d="M45.4852 42.2574L44.8532 49.3095L51.0665 44.1099" stroke="#0D6A35"/>
<path d="M55.6481 30.1594C56.198 29.6095 57.0157 29.2878 57.6973 28.9208C57.9562 28.7814 58.1358 28.5408 58.4203 28.4053C58.8523 28.1996 59.1967 28 59.688 28C60.1677 28 60.3826 28.3473 60.7774 28.5447C61.3336 28.8228 61.7961 29.199 62.3013 29.5887C62.7752 29.9543 62.7098 30.5587 62.7098 31.1191C62.7098 31.4722 62.6601 31.7934 62.5477 32.1307C62.5141 32.2314 62.4796 32.2611 62.3921 32.176C62.1505 31.9414 62.0836 31.6913 62.0711 31.359C62.0594 31.0501 62.1262 30.7441 62.1262 30.4512C62.1262 30.2477 61.7125 29.8699 61.6074 29.7314C61.4028 29.4616 61.325 29.2434 61.0173 29.1089C60.8513 29.0362 60.675 28.9536 60.4921 28.937C60.2761 28.9174 60.1007 28.7792 59.8955 28.7587C59.3597 28.7051 59.0247 29.3697 58.6829 29.6925C58.5364 29.8309 58.2977 29.9026 58.1123 29.9713C58.0015 30.0123 57.9688 30.1361 57.8659 30.1918C57.7025 30.2801 57.5204 30.3124 57.3666 30.4252C56.989 30.7021 56.5562 30.8721 56.1864 31.1515C55.8848 31.3794 55.4619 31.4887 55.2169 31.7902C55.1553 31.866 55.1328 31.9422 55.0905 32.0269C54.959 32.2898 55.4229 31.675 55.4309 31.667C56.0282 31.0697 56.6588 30.6201 57.4314 30.289C58.0946 30.0048 58.83 29.535 59.5843 29.5757C59.8261 29.5888 60.1859 29.7933 60.3883 29.9259C60.6518 30.0985 60.8834 30.2827 61.1308 30.4771C61.3219 30.6272 61.4954 30.7932 61.6593 30.9764C61.8956 31.2405 61.6523 32.7499 61.567 33C61.5015 33.1922 61.7247 33.3608 61.567 33.5C61.4818 33.5752 62.0445 32.109 62.067 32C62.1484 31.6067 61.4842 31.2137 61.4842 30.8143C61.4842 30.0332 60.9611 29.5644 60.3754 29.1089" stroke="#0D6A35" stroke-linecap="round"/>
</g>
<path d="M126.136 17.6153V22.6843H115.554V28.1603H123.472V33.0813H115.554V43.5893H109.227V17.6153H126.136ZM153.4 39.0013H143.706L142.152 43.5893H135.529L144.927 17.6153H152.253L161.651 43.5893H154.954L153.4 39.0013ZM151.772 34.1173L148.553 24.6083L145.371 34.1173H151.772ZM178.609 17.6153V43.5893H172.282V17.6153H178.609ZM209.649 17.6153V22.6843H202.767V43.5893H196.44V22.6843H189.558V17.6153H209.649ZM243.09 17.6153V43.5893H236.763V32.8963H226.921V43.5893H220.594V17.6153H226.921V27.7903H236.763V17.6153H243.09ZM271.338 27.9753V33.2293H255.058V27.9753H271.338ZM307.156 17.6153V43.5893H300.829V32.8963H290.987V43.5893H284.66V17.6153H290.987V27.7903H300.829V17.6153H307.156ZM325.821 17.6153V43.5893H319.494V17.6153H325.821ZM344.503 38.7053H352.791V43.5893H338.176V17.6153H344.503V38.7053ZM369.906 38.7053H378.194V43.5893H363.579V17.6153H369.906V38.7053Z" fill="white"/>
<path d="M110.026 53.0235V63.5535H107.461V53.0235H110.026ZM121.305 63.5535H118.74L114.45 57.0585V63.5535H111.885V53.0235H114.45L118.74 59.5485V53.0235H121.305V63.5535ZM133.049 53.0235L129.314 63.5535H126.104L122.369 53.0235H125.099L127.709 60.9735L130.334 53.0235H133.049ZM136.686 55.0785V57.2085H140.121V59.1885H136.686V61.4985H140.571V63.5535H134.121V53.0235H140.571V55.0785H136.686ZM146.046 63.6585C145.276 63.6585 144.586 63.5335 143.976 63.2835C143.366 63.0335 142.876 62.6635 142.506 62.1735C142.146 61.6835 141.956 61.0935 141.936 60.4035H144.666C144.706 60.7935 144.841 61.0935 145.071 61.3035C145.301 61.5035 145.601 61.6035 145.971 61.6035C146.351 61.6035 146.651 61.5185 146.871 61.3485C147.091 61.1685 147.201 60.9235 147.201 60.6135C147.201 60.3535 147.111 60.1385 146.931 59.9685C146.761 59.7985 146.546 59.6585 146.286 59.5485C146.036 59.4385 145.676 59.3135 145.206 59.1735C144.526 58.9635 143.971 58.7535 143.541 58.5435C143.111 58.3335 142.741 58.0235 142.431 57.6135C142.121 57.2035 141.966 56.6685 141.966 56.0085C141.966 55.0285 142.321 54.2635 143.031 53.7135C143.741 53.1535 144.666 52.8735 145.806 52.8735C146.966 52.8735 147.901 53.1535 148.611 53.7135C149.321 54.2635 149.701 55.0335 149.751 56.0235H146.976C146.956 55.6835 146.831 55.4185 146.601 55.2285C146.371 55.0285 146.076 54.9285 145.716 54.9285C145.406 54.9285 145.156 55.0135 144.966 55.1835C144.776 55.3435 144.681 55.5785 144.681 55.8885C144.681 56.2285 144.841 56.4935 145.161 56.6835C145.481 56.8735 145.981 57.0785 146.661 57.2985C147.341 57.5285 147.891 57.7485 148.311 57.9585C148.741 58.1685 149.111 58.4735 149.421 58.8735C149.731 59.2735 149.886 59.7885 149.886 60.4185C149.886 61.0185 149.731 61.5635 149.421 62.0535C149.121 62.5435 148.681 62.9335 148.101 63.2235C147.521 63.5135 146.836 63.6585 146.046 63.6585ZM159.04 53.0235V55.0785H156.25V63.5535H153.685V55.0785H150.895V53.0235H159.04ZM172.252 53.0235V63.5535H169.687V57.2385L167.332 63.5535H165.262L162.892 57.2235V63.5535H160.327V53.0235H163.357L166.312 60.3135L169.237 53.0235H172.252ZM176.662 55.0785V57.2085H180.097V59.1885H176.662V61.4985H180.547V63.5535H174.097V53.0235H180.547V55.0785H176.662ZM191.632 63.5535H189.067L184.777 57.0585V63.5535H182.212V53.0235H184.777L189.067 59.5485V53.0235H191.632V63.5535ZM201.066 53.0235V55.0785H198.276V63.5535H195.711V55.0785H192.921V53.0235H201.066ZM213.587 63.5535L212.612 62.6085C211.642 63.3485 210.482 63.7185 209.132 63.7185C208.322 63.7185 207.617 63.5885 207.017 63.3285C206.417 63.0585 205.952 62.6835 205.622 62.2035C205.302 61.7135 205.142 61.1435 205.142 60.4935C205.142 59.8335 205.317 59.2385 205.667 58.7085C206.027 58.1685 206.562 57.7285 207.272 57.3885C207.012 57.0685 206.827 56.7635 206.717 56.4735C206.607 56.1735 206.552 55.8485 206.552 55.4985C206.552 54.9985 206.682 54.5435 206.942 54.1335C207.202 53.7235 207.577 53.4035 208.067 53.1735C208.567 52.9335 209.157 52.8135 209.837 52.8135C210.527 52.8135 211.112 52.9385 211.592 53.1885C212.072 53.4385 212.432 53.7735 212.672 54.1935C212.912 54.6135 213.022 55.0735 213.002 55.5735H210.587C210.597 55.3035 210.527 55.0985 210.377 54.9585C210.237 54.8085 210.047 54.7335 209.807 54.7335C209.567 54.7335 209.367 54.8035 209.207 54.9435C209.047 55.0835 208.967 55.2635 208.967 55.4835C208.967 55.6935 209.032 55.9135 209.162 56.1435C209.302 56.3735 209.517 56.6385 209.807 56.9385L212.372 59.4435C212.392 59.3935 212.417 59.3335 212.447 59.2635C212.487 59.1935 212.527 59.1135 212.567 59.0235L213.122 58.0785H215.687L214.967 59.3835C214.697 59.9735 214.387 60.5335 214.037 61.0635L216.572 63.5535H213.587ZM209.252 61.6485C209.922 61.6485 210.517 61.4585 211.037 61.0785L208.697 58.8135C207.977 59.1835 207.617 59.6835 207.617 60.3135C207.617 60.6935 207.762 61.0135 208.052 61.2735C208.352 61.5235 208.752 61.6485 209.252 61.6485ZM223.244 61.5735H226.604V63.5535H220.679V53.0235H223.244V61.5735ZM232.807 63.6585C231.817 63.6585 230.907 63.4285 230.077 62.9685C229.257 62.5085 228.602 61.8685 228.112 61.0485C227.632 60.2185 227.392 59.2885 227.392 58.2585C227.392 57.2285 227.632 56.3035 228.112 55.4835C228.602 54.6635 229.257 54.0235 230.077 53.5635C230.907 53.1035 231.817 52.8735 232.807 52.8735C233.797 52.8735 234.702 53.1035 235.522 53.5635C236.352 54.0235 237.002 54.6635 237.472 55.4835C237.952 56.3035 238.192 57.2285 238.192 58.2585C238.192 59.2885 237.952 60.2185 237.472 61.0485C236.992 61.8685 236.342 62.5085 235.522 62.9685C234.702 63.4285 233.797 63.6585 232.807 63.6585ZM232.807 61.3185C233.647 61.3185 234.317 61.0385 234.817 60.4785C235.327 59.9185 235.582 59.1785 235.582 58.2585C235.582 57.3285 235.327 56.5885 234.817 56.0385C234.317 55.4785 233.647 55.1985 232.807 55.1985C231.957 55.1985 231.277 55.4735 230.767 56.0235C230.267 56.5735 230.017 57.3185 230.017 58.2585C230.017 59.1885 230.267 59.9335 230.767 60.4935C231.277 61.0435 231.957 61.3185 232.807 61.3185ZM246.609 56.3535C246.419 56.0035 246.144 55.7385 245.784 55.5585C245.434 55.3685 245.019 55.2735 244.539 55.2735C243.709 55.2735 243.044 55.5485 242.544 56.0985C242.044 56.6385 241.794 57.3635 241.794 58.2735C241.794 59.2435 242.054 60.0035 242.574 60.5535C243.104 61.0935 243.829 61.3635 244.749 61.3635C245.379 61.3635 245.909 61.2035 246.339 60.8835C246.779 60.5635 247.099 60.1035 247.299 59.5035H244.044V57.6135H249.624V59.9985C249.434 60.6385 249.109 61.2335 248.649 61.7835C248.199 62.3335 247.624 62.7785 246.924 63.1185C246.224 63.4585 245.434 63.6285 244.554 63.6285C243.514 63.6285 242.584 63.4035 241.764 62.9535C240.954 62.4935 240.319 61.8585 239.859 61.0485C239.409 60.2385 239.184 59.3135 239.184 58.2735C239.184 57.2335 239.409 56.3085 239.859 55.4985C240.319 54.6785 240.954 54.0435 241.764 53.5935C242.574 53.1335 243.499 52.9035 244.539 52.9035C245.799 52.9035 246.859 53.2085 247.719 53.8185C248.589 54.4285 249.164 55.2735 249.444 56.3535H246.609ZM253.61 53.0235V63.5535H251.045V53.0235H253.61ZM259.279 63.6585C258.509 63.6585 257.819 63.5335 257.209 63.2835C256.599 63.0335 256.109 62.6635 255.739 62.1735C255.379 61.6835 255.189 61.0935 255.169 60.4035H257.899C257.939 60.7935 258.074 61.0935 258.304 61.3035C258.534 61.5035 258.834 61.6035 259.204 61.6035C259.584 61.6035 259.884 61.5185 260.104 61.3485C260.324 61.1685 260.434 60.9235 260.434 60.6135C260.434 60.3535 260.344 60.1385 260.164 59.9685C259.994 59.7985 259.779 59.6585 259.519 59.5485C259.269 59.4385 258.909 59.3135 258.439 59.1735C257.759 58.9635 257.204 58.7535 256.774 58.5435C256.344 58.3335 255.974 58.0235 255.664 57.6135C255.354 57.2035 255.199 56.6685 255.199 56.0085C255.199 55.0285 255.554 54.2635 256.264 53.7135C256.974 53.1535 257.899 52.8735 259.039 52.8735C260.199 52.8735 261.134 53.1535 261.844 53.7135C262.554 54.2635 262.934 55.0335 262.984 56.0235H260.209C260.189 55.6835 260.064 55.4185 259.834 55.2285C259.604 55.0285 259.309 54.9285 258.949 54.9285C258.639 54.9285 258.389 55.0135 258.199 55.1835C258.009 55.3435 257.914 55.5785 257.914 55.8885C257.914 56.2285 258.074 56.4935 258.394 56.6835C258.714 56.8735 259.214 57.0785 259.894 57.2985C260.574 57.5285 261.124 57.7485 261.544 57.9585C261.974 58.1685 262.344 58.4735 262.654 58.8735C262.964 59.2735 263.119 59.7885 263.119 60.4185C263.119 61.0185 262.964 61.5635 262.654 62.0535C262.354 62.5435 261.914 62.9335 261.334 63.2235C260.754 63.5135 260.069 63.6585 259.279 63.6585ZM272.272 53.0235V55.0785H269.482V63.5535H266.917V55.0785H264.127V53.0235H272.272ZM276.124 53.0235V63.5535H273.559V53.0235H276.124ZM277.548 58.2735C277.548 57.2335 277.773 56.3085 278.223 55.4985C278.673 54.6785 279.298 54.0435 280.098 53.5935C280.908 53.1335 281.823 52.9035 282.843 52.9035C284.093 52.9035 285.163 53.2335 286.053 53.8935C286.943 54.5535 287.538 55.4535 287.838 56.5935H285.018C284.808 56.1535 284.508 55.8185 284.118 55.5885C283.738 55.3585 283.303 55.2435 282.813 55.2435C282.023 55.2435 281.383 55.5185 280.893 56.0685C280.403 56.6185 280.158 57.3535 280.158 58.2735C280.158 59.1935 280.403 59.9285 280.893 60.4785C281.383 61.0285 282.023 61.3035 282.813 61.3035C283.303 61.3035 283.738 61.1885 284.118 60.9585C284.508 60.7285 284.808 60.3935 285.018 59.9535H287.838C287.538 61.0935 286.943 61.9935 286.053 62.6535C285.163 63.3035 284.093 63.6285 282.843 63.6285C281.823 63.6285 280.908 63.4035 280.098 62.9535C279.298 62.4935 278.673 61.8585 278.223 61.0485C277.773 60.2385 277.548 59.3135 277.548 58.2735ZM293.219 63.6585C292.449 63.6585 291.759 63.5335 291.149 63.2835C290.539 63.0335 290.049 62.6635 289.679 62.1735C289.319 61.6835 289.129 61.0935 289.109 60.4035H291.839C291.879 60.7935 292.014 61.0935 292.244 61.3035C292.474 61.5035 292.774 61.6035 293.144 61.6035C293.524 61.6035 293.824 61.5185 294.044 61.3485C294.264 61.1685 294.374 60.9235 294.374 60.6135C294.374 60.3535 294.284 60.1385 294.104 59.9685C293.934 59.7985 293.719 59.6585 293.459 59.5485C293.209 59.4385 292.849 59.3135 292.379 59.1735C291.699 58.9635 291.144 58.7535 290.714 58.5435C290.284 58.3335 289.914 58.0235 289.604 57.6135C289.294 57.2035 289.139 56.6685 289.139 56.0085C289.139 55.0285 289.494 54.2635 290.204 53.7135C290.914 53.1535 291.839 52.8735 292.979 52.8735C294.139 52.8735 295.074 53.1535 295.784 53.7135C296.494 54.2635 296.874 55.0335 296.924 56.0235H294.149C294.129 55.6835 294.004 55.4185 293.774 55.2285C293.544 55.0285 293.249 54.9285 292.889 54.9285C292.579 54.9285 292.329 55.0135 292.139 55.1835C291.949 55.3435 291.854 55.5785 291.854 55.8885C291.854 56.2285 292.014 56.4935 292.334 56.6835C292.654 56.8735 293.154 57.0785 293.834 57.2985C294.514 57.5285 295.064 57.7485 295.484 57.9585C295.914 58.1685 296.284 58.4735 296.594 58.8735C296.904 59.2735 297.059 59.7885 297.059 60.4185C297.059 61.0185 296.904 61.5635 296.594 62.0535C296.294 62.5435 295.854 62.9335 295.274 63.2235C294.694 63.5135 294.009 63.6585 293.219 63.6585ZM301.381 58.2735C301.381 57.2335 301.606 56.3085 302.056 55.4985C302.506 54.6785 303.131 54.0435 303.931 53.5935C304.741 53.1335 305.656 52.9035 306.676 52.9035C307.926 52.9035 308.996 53.2335 309.886 53.8935C310.776 54.5535 311.371 55.4535 311.671 56.5935H308.851C308.641 56.1535 308.341 55.8185 307.951 55.5885C307.571 55.3585 307.136 55.2435 306.646 55.2435C305.856 55.2435 305.216 55.5185 304.726 56.0685C304.236 56.6185 303.991 57.3535 303.991 58.2735C303.991 59.1935 304.236 59.9285 304.726 60.4785C305.216 61.0285 305.856 61.3035 306.646 61.3035C307.136 61.3035 307.571 61.1885 307.951 60.9585C308.341 60.7285 308.641 60.3935 308.851 59.9535H311.671C311.371 61.0935 310.776 61.9935 309.886 62.6535C308.996 63.3035 307.926 63.6285 306.676 63.6285C305.656 63.6285 304.741 63.4035 303.931 62.9535C303.131 62.4935 302.506 61.8585 302.056 61.0485C301.606 60.2385 301.381 59.3135 301.381 58.2735ZM318.222 63.6585C317.232 63.6585 316.322 63.4285 315.492 62.9685C314.672 62.5085 314.017 61.8685 313.527 61.0485C313.047 60.2185 312.807 59.2885 312.807 58.2585C312.807 57.2285 313.047 56.3035 313.527 55.4835C314.017 54.6635 314.672 54.0235 315.492 53.5635C316.322 53.1035 317.232 52.8735 318.222 52.8735C319.212 52.8735 320.117 53.1035 320.937 53.5635C321.767 54.0235 322.417 54.6635 322.887 55.4835C323.367 56.3035 323.607 57.2285 323.607 58.2585C323.607 59.2885 323.367 60.2185 322.887 61.0485C322.407 61.8685 321.757 62.5085 320.937 62.9685C320.117 63.4285 319.212 63.6585 318.222 63.6585ZM318.222 61.3185C319.062 61.3185 319.732 61.0385 320.232 60.4785C320.742 59.9185 320.997 59.1785 320.997 58.2585C320.997 57.3285 320.742 56.5885 320.232 56.0385C319.732 55.4785 319.062 55.1985 318.222 55.1985C317.372 55.1985 316.692 55.4735 316.182 56.0235C315.682 56.5735 315.432 57.3185 315.432 58.2585C315.432 59.1885 315.682 59.9335 316.182 60.4935C316.692 61.0435 317.372 61.3185 318.222 61.3185ZM336.959 53.0235V63.5535H334.394V57.2385L332.039 63.5535H329.969L327.599 57.2235V63.5535H325.034V53.0235H328.064L331.019 60.3135L333.944 53.0235H336.959ZM346.829 56.4135C346.829 57.0235 346.689 57.5835 346.409 58.0935C346.129 58.5935 345.699 58.9985 345.119 59.3085C344.539 59.6185 343.819 59.7735 342.959 59.7735H341.369V63.5535H338.804V53.0235H342.959C343.799 53.0235 344.509 53.1685 345.089 53.4585C345.669 53.7485 346.104 54.1485 346.394 54.6585C346.684 55.1685 346.829 55.7535 346.829 56.4135ZM342.764 57.7335C343.254 57.7335 343.619 57.6185 343.859 57.3885C344.099 57.1585 344.219 56.8335 344.219 56.4135C344.219 55.9935 344.099 55.6685 343.859 55.4385C343.619 55.2085 343.254 55.0935 342.764 55.0935H341.369V57.7335H342.764ZM354.719 61.6935H350.789L350.159 63.5535H347.474L351.284 53.0235H354.254L358.064 63.5535H355.349L354.719 61.6935ZM354.059 59.7135L352.754 55.8585L351.464 59.7135H354.059ZM368.644 63.5535H366.079L361.789 57.0585V63.5535H359.224V53.0235H361.789L366.079 59.5485V53.0235H368.644V63.5535ZM379.533 53.0235L375.888 60.0735V63.5535H373.323V60.0735L369.678 53.0235H372.588L374.628 57.4335L376.653 53.0235H379.533Z" fill="#8AC551"/>
</svg>
